<svg xmlns="http://www.w3.org/2000/svg" viewBox="0 0 1200 800" width="1200" height="800" role="img" aria-label="Aplikasi">
<defs>
<linearGradient id="gaplikasi4" x1="1" y1="0" x2="0" y2="1">
<stop offset="0" stop-color="#015783"/><stop offset="1" stop-color="#064e75"/>
</linearGradient>
<pattern id="taplikasi4" width="52" height="52" patternUnits="userSpaceOnUse"><circle cx="26" cy="26" r="15" fill="none" stroke="#fff" stroke-width="2" opacity=".08"/></pattern>
</defs>
<rect width="1200" height="800" fill="url(#gaplikasi4)"/>
<rect width="1200" height="800" fill="url(#taplikasi4)"/>
<circle cx="1090" cy="660" r="280" fill="#fff" opacity=".07"/><rect x="70" y="70" width="250" height="250" rx="64" fill="#fff" opacity=".06"/><circle cx="196" cy="196" r="60" fill="#fff" opacity=".05"/>
<g transform="translate(600 372) scale(10) translate(-12 -12)" fill="none" stroke="#fff" stroke-width="1.6" stroke-linecap="round" stroke-linejoin="round" opacity=".95"><path d="M5 4a2 2 0 0 1 2-2h10a2 2 0 0 1 2 2v16a2 2 0 0 1-2 2H7a2 2 0 0 1-2-2z"/><path d="M12 18h.01"/></g>
<text x="600" y="616" text-anchor="middle" font-family="'Space Grotesk','Segoe UI',system-ui,sans-serif" font-size="40" font-weight="700" fill="#fff" letter-spacing="7" opacity=".95">APLIKASI</text>
<rect x="510" y="652" width="180" height="5" rx="2.5" fill="#fff" opacity=".55"/>
</svg>