<svg xmlns="http://www.w3.org/2000/svg" viewBox="0 0 1200 800" width="1200" height="800" role="img" aria-label="Keamanan">
<defs>
<linearGradient id="gkeamanan3" x1="0" y1="0" x2="0" y2="1">
<stop offset="0" stop-color="#425fbc"/><stop offset="1" stop-color="#233e8c"/>
</linearGradient>
<pattern id="tkeamanan3" width="40" height="40" patternUnits="userSpaceOnUse"><path d="M0 0H40V40" fill="none" stroke="#fff" stroke-width="1.5" opacity=".1"/></pattern>
</defs>
<rect width="1200" height="800" fill="url(#gkeamanan3)"/>
<rect width="1200" height="800" fill="url(#tkeamanan3)"/>
<path d="M0 600 Q300 470 600 590 T1200 520 V800 H0Z" fill="#fff" opacity=".08"/><path d="M0 690 Q320 570 640 680 T1200 620 V800 H0Z" fill="#fff" opacity=".06"/>
<g transform="translate(600 340) scale(9) translate(-12 -12)" fill="none" stroke="#fff" stroke-width="1.6" stroke-linecap="round" stroke-linejoin="round" opacity=".95"><path d="M20 13c0 5-3.5 7.5-7.66 8.95a1 1 0 0 1-.67-.01C7.5 20.5 4 18 4 13V6a1 1 0 0 1 1-1c2 0 4.5-1.2 6.24-2.72a1.17 1.17 0 0 1 1.52 0C14.51 3.81 17 5 19 5a1 1 0 0 1 1 1z"/><path d="m9 12 2 2 4-4"/></g>
<text x="600" y="584" text-anchor="middle" font-family="'Space Grotesk','Segoe UI',system-ui,sans-serif" font-size="40" font-weight="700" fill="#fff" letter-spacing="7" opacity=".95">KEAMANAN</text>
<rect x="510" y="620" width="180" height="5" rx="2.5" fill="#fff" opacity=".55"/>
</svg>