<svg xmlns="http://www.w3.org/2000/svg" viewBox="0 0 1200 800" width="1200" height="800" role="img" aria-label="Panduan">
<defs>
<linearGradient id="gpanduan1" x1="0" y1="0" x2="1" y2="1">
<stop offset="0" stop-color="#2563eb"/><stop offset="1" stop-color="#1d4ed8"/>
</linearGradient>
<pattern id="tpanduan1" width="34" height="34" patternUnits="userSpaceOnUse"><circle cx="2" cy="2" r="2" fill="#fff" opacity=".14"/></pattern>
</defs>
<rect width="1200" height="800" fill="url(#gpanduan1)"/>
<rect width="1200" height="800" fill="url(#tpanduan1)"/>
<circle cx="1020" cy="150" r="250" fill="#fff" opacity=".07"/><circle cx="1020" cy="150" r="160" fill="#fff" opacity=".05"/><circle cx="140" cy="700" r="180" fill="#fff" opacity=".05"/>
<g transform="translate(600 368) scale(9.5) translate(-12 -12)" fill="none" stroke="#fff" stroke-width="1.6" stroke-linecap="round" stroke-linejoin="round" opacity=".95"><path d="M12 7v14"/><path d="M3 18a1 1 0 0 1-1-1V4a1 1 0 0 1 1-1h5a4 4 0 0 1 4 4 4 4 0 0 1 4-4h5a1 1 0 0 1 1 1v13a1 1 0 0 1-1 1h-6a3 3 0 0 0-3 3 3 3 0 0 0-3-3z"/></g>
<text x="600" y="612" text-anchor="middle" font-family="'Space Grotesk','Segoe UI',system-ui,sans-serif" font-size="40" font-weight="700" fill="#fff" letter-spacing="7" opacity=".95">PANDUAN</text>
<rect x="510" y="648" width="180" height="5" rx="2.5" fill="#fff" opacity=".55"/>
</svg>