<svg xmlns="http://www.w3.org/2000/svg" viewBox="0 0 1200 800" width="1200" height="800" role="img" aria-label="Toko Online">
<defs>
<linearGradient id="gtoko-online3" x1="0" y1="0" x2="1" y2="1">
<stop offset="0" stop-color="#2563EB"/><stop offset="1" stop-color="#1D4ED8"/>
</linearGradient>
<pattern id="dtoko-online3" width="34" height="34" patternUnits="userSpaceOnUse">
<circle cx="2" cy="2" r="2" fill="#fff" opacity=".13"/>
</pattern>
</defs>
<rect width="1200" height="800" fill="url(#gtoko-online3)"/>
<rect width="1200" height="800" fill="url(#dtoko-online3)"/>
<path d="M0 640 Q300 520 600 620 T1200 560 V800 H0Z" fill="#fff" opacity=".06"/><circle cx="980" cy="180" r="150" fill="#fff" opacity=".06"/>
<g transform="translate(600 372) scale(9.5) translate(-12 -12)" fill="none" stroke="#fff" stroke-width="1.6" stroke-linecap="round" stroke-linejoin="round" opacity=".95"><path d="M2.05 2.05h2l2.66 12.42a2 2 0 0 0 2 1.58h9.78a2 2 0 0 0 1.95-1.57l1.65-7.43H5.12"/><path d="M8 21a1 1 0 1 0 0-2 1 1 0 0 0 0 2z"/><path d="M19 21a1 1 0 1 0 0-2 1 1 0 0 0 0 2z"/></g>
<text x="600" y="612" text-anchor="middle" font-family="'Space Grotesk','Segoe UI',system-ui,sans-serif" font-size="40" font-weight="700" fill="#fff" letter-spacing="7" opacity=".95">TOKO ONLINE</text>
<rect x="510" y="648" width="180" height="5" rx="2.5" fill="#fff" opacity=".55"/>
</svg>